<svg width="19" height="11" viewBox="0 0 19 11" fill="none" xmlns="http://www.w3.org/2000/svg">
<path fill-rule="evenodd" clip-rule="evenodd" d="M1.29776 0C1.04107 5.48088e-05 0.790166 0.0762129 0.576756 0.218847C0.363345 0.361481 0.197015 0.564187 0.0987926 0.801339C0.000569998 1.03849 -0.0251354 1.29944 0.0249268 1.5512C0.074989 1.80296 0.198571 2.03422 0.380049 2.21575L8.16828 10.004C8.4117 10.2473 8.7418 10.384 9.08599 10.384C9.43019 10.384 9.76029 10.2473 10.0037 10.004L17.7919 2.21575C17.9734 2.03422 18.097 1.80296 18.1471 1.5512C18.1971 1.29944 18.1714 1.03849 18.0732 0.801339C17.975 0.564187 17.8086 0.361481 17.5952 0.218847C17.3818 0.0762129 17.1309 5.48088e-05 16.8742 0H1.29776Z" fill="#8E8E8E"/>
</svg>
